<svg width="49" height="46" viewBox="0 0 49 46" fill="none" xmlns="http://www.w3.org/2000/svg">
<path d="M46.5508 16.6549L32.4177 14.6009L26.0998 1.7926C25.9272 1.44192 25.6433 1.15803 25.2926 0.98547C24.4132 0.55129 23.3444 0.913107 22.9047 1.7926L16.5868 14.6009L2.45368 16.6549C2.06403 16.7106 1.70778 16.8943 1.43503 17.1726C1.10529 17.5115 0.923582 17.9675 0.929844 18.4403C0.936107 18.9131 1.12982 19.3641 1.46843 19.6942L11.6939 29.6636L9.2781 43.741C9.22145 44.0685 9.25768 44.4053 9.3827 44.7132C9.50772 45.0212 9.71651 45.2879 9.98541 45.4832C10.2543 45.6785 10.5725 45.7945 10.904 45.8182C11.2355 45.8418 11.567 45.7721 11.8609 45.6169L24.5022 38.9706L37.1435 45.6169C37.4886 45.8006 37.8894 45.8618 38.2735 45.795C39.2421 45.6281 39.8933 44.7096 39.7263 43.741L37.3105 29.6636L47.536 19.6942C47.8143 19.4214 47.998 19.0652 48.0537 18.6755C48.204 17.7014 47.5249 16.7996 46.5508 16.6549Z" fill="#57565C"/>
</svg>
