<?xml version="1.0" encoding="utf-8"?>
<!-- Generator: Adobe Illustrator 25.2.0, SVG Export Plug-In . SVG Version: 6.00 Build 0)  -->
<svg version="1.1" baseProfile="basic" id="Слой_1"
	 xmlns="http://www.w3.org/2000/svg" xmlns:xlink="http://www.w3.org/1999/xlink" x="0px" y="0px" viewBox="0 0 49 46"
	 xml:space="preserve">
<path fill="#BBBBBB" d="M46.6,16.7l-14.1-2.1L26.2,1.8C26,1.5,25.7,1.2,25.4,1c-0.9-0.4-1.9-0.1-2.4,0.8l-6.3,12.8L2.6,16.7
	c-0.4,0.1-0.7,0.2-1,0.5C1.2,17.5,1,18,1,18.5c0,0.5,0.2,0.9,0.5,1.3l10.2,10L9.4,43.8c-0.1,0.3,0,0.7,0.1,1
	c0.1,0.3,0.3,0.6,0.6,0.8s0.6,0.3,0.9,0.3c0.3,0,0.7,0,1-0.2L24.6,39l12.6,6.6c0.3,0.2,0.7,0.2,1.1,0.2c1-0.2,1.6-1.1,1.5-2.1
	l-2.4-14.1l10.2-10c0.3-0.3,0.5-0.6,0.5-1C48.3,17.7,47.6,16.8,46.6,16.7z"/>
<g>
	<defs>
		<rect id="SVGID_1_" x="1.1" y="1" width="23" height="45"/>
	</defs>
	<clipPath id="SVGID_2_">
		<use xlink:href="#SVGID_1_"  overflow="visible"/>
	</clipPath>
	<g clip-path="url(#SVGID_2_)">
		<path fill="#57565C" d="M46.6,16.7l-14.1-2.1L26.2,1.8C26,1.5,25.7,1.2,25.4,1c-0.9-0.4-1.9-0.1-2.4,0.8l-6.3,12.8L2.6,16.7
			c-0.4,0.1-0.7,0.2-1,0.5C1.2,17.5,1,18,1,18.5c0,0.5,0.2,0.9,0.5,1.3l10.2,10L9.4,43.8c-0.1,0.3,0,0.7,0.1,1
			c0.1,0.3,0.3,0.6,0.6,0.8s0.6,0.3,0.9,0.3c0.3,0,0.7,0,1-0.2L24.6,39l12.6,6.6c0.3,0.2,0.7,0.2,1.1,0.2c1-0.2,1.6-1.1,1.5-2.1
			l-2.4-14.1l10.2-10c0.3-0.3,0.5-0.6,0.5-1C48.3,17.7,47.6,16.8,46.6,16.7z"/>
	</g>
</g>
</svg>
