<svg width="57" height="57" viewBox="0 0 57 57" fill="none" xmlns="http://www.w3.org/2000/svg">
<path d="M50.5508 19.6549L36.4177 17.6009L30.0998 4.7926C29.9272 4.44192 29.6433 4.15803 29.2926 3.98547C28.4132 3.55129 27.3444 3.91311 26.9047 4.7926L20.5868 17.6009L6.45368 19.6549C6.06403 19.7106 5.70778 19.8943 5.43503 20.1726C5.10529 20.5115 4.92358 20.9675 4.92984 21.4403C4.93611 21.9131 5.12982 22.3641 5.46843 22.6942L15.6939 32.6636L13.2781 46.741C13.2214 47.0685 13.2577 47.4053 13.3827 47.7132C13.5077 48.0212 13.7165 48.2879 13.9854 48.4832C14.2543 48.6785 14.5725 48.7945 14.904 48.8182C15.2355 48.8418 15.567 48.7721 15.8609 48.6169L28.5022 41.9706L41.1435 48.6169C41.4886 48.8006 41.8894 48.8618 42.2735 48.795C43.2421 48.6281 43.8933 47.7096 43.7263 46.741L41.3105 32.6636L51.536 22.6942C51.8143 22.4214 51.998 22.0652 52.0537 21.6755C52.204 20.7014 51.5249 19.7996 50.5508 19.6549Z" fill="#BBBBBB"/>
<g clip-path="url(#clip0)">
<path d="M50.5508 19.6549L36.4177 17.6009L30.0998 4.7926C29.9272 4.44192 29.6433 4.15803 29.2926 3.98547C28.4132 3.55129 27.3444 3.91311 26.9047 4.7926L20.5868 17.6009L6.45368 19.6549C6.06403 19.7106 5.70778 19.8943 5.43503 20.1726C5.10529 20.5115 4.92358 20.9675 4.92984 21.4403C4.93611 21.9131 5.12982 22.3641 5.46843 22.6942L15.6939 32.6636L13.2781 46.741C13.2214 47.0685 13.2577 47.4053 13.3827 47.7132C13.5077 48.0212 13.7165 48.2879 13.9854 48.4832C14.2543 48.6785 14.5725 48.7945 14.904 48.8182C15.2355 48.8418 15.567 48.7721 15.8609 48.6169L28.5022 41.9706L41.1435 48.6169C41.4886 48.8006 41.8894 48.8618 42.2735 48.795C43.2421 48.6281 43.8933 47.7096 43.7263 46.741L41.3105 32.6636L51.536 22.6942C51.8143 22.4214 51.998 22.0652 52.0537 21.6755C52.204 20.7014 51.5249 19.7996 50.5508 19.6549Z" fill="#57565C"/>
</g>
<defs>
<clipPath id="clip0">
<rect width="23" height="45" fill="white" transform="translate(5 4)"/>
</clipPath>
</defs>
</svg>
